<svg xmlns="http://www.w3.org/2000/svg" xmlns:xlink="http://www.w3.org/1999/xlink" width="500" zoomAndPan="magnify" viewBox="0 0 375 374.999991" height="500" preserveAspectRatio="xMidYMid meet" version="1.0"><defs><g/></defs><g fill="#000000" fill-opacity="1"><g transform="translate(34.873431, 174.049997)"><g><path d="M 25.046875 1.21875 L 18.84375 -15.015625 L 12.5 1.25 L 1.859375 -26.90625 L 3.984375 -26.90625 L 12.6875 -3.109375 L 17.9375 -17.328125 L 14.28125 -26.90625 L 16.15625 -26.90625 L 25.125 -3.34375 L 33.890625 -26.90625 L 35.875 -26.90625 Z M 25.046875 1.21875 "/></g></g></g><g fill="#000000" fill-opacity="1"><g transform="translate(80.99773, 174.049997)"><g><path d="M 14.40625 -13.71875 C 16.019531 -13.238281 17.328125 -12.425781 18.328125 -11.28125 C 19.335938 -10.144531 19.84375 -8.78125 19.84375 -7.1875 C 19.84375 -5.632812 19.445312 -4.3125 18.65625 -3.21875 C 17.875 -2.132812 16.835938 -1.328125 15.546875 -0.796875 C 14.253906 -0.265625 12.847656 0 11.328125 0 L 4.296875 0 L 4.296875 -26.984375 L 10.265625 -26.984375 C 15.734375 -26.984375 18.46875 -24.703125 18.46875 -20.140625 C 18.46875 -18.640625 18.117188 -17.328125 17.421875 -16.203125 C 16.722656 -15.078125 15.71875 -14.25 14.40625 -13.71875 Z M 6.15625 -14.359375 L 11.140625 -14.359375 C 12.960938 -14.359375 14.320312 -14.851562 15.21875 -15.84375 C 16.113281 -16.832031 16.5625 -18.148438 16.5625 -19.796875 C 16.5625 -21.648438 16.015625 -23.007812 14.921875 -23.875 C 13.835938 -24.75 12.3125 -25.1875 10.34375 -25.1875 L 6.15625 -25.1875 Z M 11.25 -1.703125 C 13.175781 -1.703125 14.769531 -2.171875 16.03125 -3.109375 C 17.300781 -4.046875 17.9375 -5.378906 17.9375 -7.109375 C 17.9375 -8.929688 17.257812 -10.296875 15.90625 -11.203125 C 14.550781 -12.117188 12.960938 -12.578125 11.140625 -12.578125 L 6.15625 -12.578125 L 6.15625 -1.703125 Z M 11.25 -1.703125 "/></g></g></g><g fill="#000000" fill-opacity="1"><g transform="translate(111.811151, 174.049997)"><g><path d="M 20.9375 -26.984375 L 20.9375 -25.1875 L 6.15625 -25.1875 L 6.15625 -14.484375 L 19.453125 -14.484375 L 19.453125 -12.6875 L 6.15625 -12.6875 L 6.15625 -1.78125 L 21.46875 -1.78125 L 21.46875 0 L 4.296875 0 L 4.296875 -26.984375 Z M 20.9375 -26.984375 "/></g></g></g><g fill="#000000" fill-opacity="1"><g transform="translate(144.486194, 174.049997)"><g><path d="M 6.15625 -26.984375 L 6.15625 0 L 4.296875 0 L 4.296875 -26.984375 Z M 6.15625 -26.984375 "/></g></g></g><g fill="#000000" fill-opacity="1"><g transform="translate(163.33206, 174.049997)"><g><path d="M 30.140625 -27.59375 L 30.140625 0 L 28.3125 0 L 28.3125 -22.15625 L 17.21875 -6.53125 L 17.140625 -6.53125 L 6.125 -21.96875 L 6.125 0 L 4.296875 0 L 4.296875 -27.59375 L 4.328125 -27.59375 L 17.171875 -9.3125 L 30.09375 -27.59375 Z M 30.140625 -27.59375 "/></g></g></g><g fill="#000000" fill-opacity="1"><g transform="translate(206.151031, 174.049997)"><g><path d="M 19.265625 -8.9375 L 7.375 -8.9375 L 3.796875 0 L 1.9375 0 L 13.34375 -28.15625 L 13.484375 -28.15625 L 24.890625 0 L 22.796875 0 Z M 18.578125 -10.671875 L 13.375 -23.9375 L 8.0625 -10.671875 Z M 18.578125 -10.671875 "/></g></g></g><g fill="#000000" fill-opacity="1"><g transform="translate(241.371572, 174.049997)"><g><path d="M 19.421875 0 L 12.34375 -11.46875 C 11.8125 -11.375 11.144531 -11.328125 10.34375 -11.328125 L 6.15625 -11.328125 L 6.15625 0 L 4.296875 0 L 4.296875 -26.984375 L 10.453125 -26.984375 C 11.867188 -26.984375 13.226562 -26.703125 14.53125 -26.140625 C 15.832031 -25.585938 16.894531 -24.738281 17.71875 -23.59375 C 18.550781 -22.457031 18.96875 -21.039062 18.96875 -19.34375 C 18.96875 -17.695312 18.585938 -16.207031 17.828125 -14.875 C 17.066406 -13.539062 15.882812 -12.570312 14.28125 -11.96875 L 21.578125 0 Z M 10.21875 -13.109375 C 12.675781 -13.109375 14.429688 -13.71875 15.484375 -14.9375 C 16.535156 -16.15625 17.0625 -17.597656 17.0625 -19.265625 C 17.0625 -20.328125 16.800781 -21.3125 16.28125 -22.21875 C 15.757812 -23.132812 15.015625 -23.859375 14.046875 -24.390625 C 13.085938 -24.921875 11.976562 -25.1875 10.71875 -25.1875 L 6.15625 -25.1875 L 6.15625 -13.109375 Z M 10.21875 -13.109375 "/></g></g></g><path stroke-linecap="butt" transform="matrix(0.748858, 0, 0, 0.75, 275.896482, 160.776508)" fill="none" stroke-linejoin="miter" d="M -0.00260441 0.501115 L 82.138051 0.501115 " stroke="#000000" stroke-width="1" stroke-opacity="1" stroke-miterlimit="4"/><g fill="#000000" fill-opacity="1"><g transform="translate(94.966668, 218.949991)"><g><path d="M 23.671875 -1.78125 C 22.679688 -1.175781 21.566406 -0.675781 20.328125 -0.28125 C 19.085938 0.101562 17.757812 0.296875 16.34375 0.296875 C 13.632812 0.296875 11.238281 -0.304688 9.15625 -1.515625 C 7.082031 -2.734375 5.46875 -4.378906 4.3125 -6.453125 C 3.15625 -8.535156 2.578125 -10.816406 2.578125 -13.296875 C 2.578125 -15.910156 3.171875 -18.28125 4.359375 -20.40625 C 5.554688 -22.53125 7.191406 -24.207031 9.265625 -25.4375 C 11.347656 -26.664062 13.65625 -27.28125 16.1875 -27.28125 C 18.84375 -27.28125 21.300781 -26.597656 23.5625 -25.234375 L 22.765625 -23.515625 C 20.628906 -24.835938 18.445312 -25.5 16.21875 -25.5 C 14.125 -25.5 12.175781 -24.957031 10.375 -23.875 C 8.570312 -22.800781 7.144531 -21.332031 6.09375 -19.46875 C 5.039062 -17.613281 4.515625 -15.582031 4.515625 -13.375 C 4.515625 -11.195312 4.992188 -9.203125 5.953125 -7.390625 C 6.921875 -5.578125 8.289062 -4.140625 10.0625 -3.078125 C 11.84375 -2.015625 13.894531 -1.484375 16.21875 -1.484375 C 18.550781 -1.484375 20.742188 -2.128906 22.796875 -3.421875 Z M 23.671875 -1.78125 "/></g></g></g><g fill="#000000" fill-opacity="1"><g transform="translate(129.617304, 218.949991)"><g><path d="M 19.265625 -8.9375 L 7.375 -8.9375 L 3.796875 0 L 1.9375 0 L 13.34375 -28.15625 L 13.484375 -28.15625 L 24.890625 0 L 22.796875 0 Z M 18.578125 -10.671875 L 13.375 -23.9375 L 8.0625 -10.671875 Z M 18.578125 -10.671875 "/></g></g></g><g fill="#000000" fill-opacity="1"><g transform="translate(164.837834, 218.949991)"><g><path d="M 19.421875 0 L 12.34375 -11.46875 C 11.8125 -11.375 11.144531 -11.328125 10.34375 -11.328125 L 6.15625 -11.328125 L 6.15625 0 L 4.296875 0 L 4.296875 -26.984375 L 10.453125 -26.984375 C 11.867188 -26.984375 13.226562 -26.703125 14.53125 -26.140625 C 15.832031 -25.585938 16.894531 -24.738281 17.71875 -23.59375 C 18.550781 -22.457031 18.96875 -21.039062 18.96875 -19.34375 C 18.96875 -17.695312 18.585938 -16.207031 17.828125 -14.875 C 17.066406 -13.539062 15.882812 -12.570312 14.28125 -11.96875 L 21.578125 0 Z M 10.21875 -13.109375 C 12.675781 -13.109375 14.429688 -13.71875 15.484375 -14.9375 C 16.535156 -16.15625 17.0625 -17.597656 17.0625 -19.265625 C 17.0625 -20.328125 16.800781 -21.3125 16.28125 -22.21875 C 15.757812 -23.132812 15.015625 -23.859375 14.046875 -24.390625 C 13.085938 -24.921875 11.976562 -25.1875 10.71875 -25.1875 L 6.15625 -25.1875 L 6.15625 -13.109375 Z M 10.21875 -13.109375 "/></g></g></g><g fill="#000000" fill-opacity="1"><g transform="translate(197.284922, 218.949991)"><g><path d="M 4.296875 -26.984375 L 10.9375 -26.984375 C 14.238281 -26.984375 16.96875 -26.3125 19.125 -24.96875 C 21.289062 -23.625 22.875 -21.910156 23.875 -19.828125 C 24.882812 -17.753906 25.390625 -15.59375 25.390625 -13.34375 C 25.390625 -10.707031 24.785156 -8.375 23.578125 -6.34375 C 22.378906 -4.320312 20.769531 -2.757812 18.75 -1.65625 C 16.738281 -0.550781 14.566406 0 12.234375 0 L 4.296875 0 Z M 11.734375 -1.78125 C 13.921875 -1.78125 15.90625 -2.253906 17.6875 -3.203125 C 19.476562 -4.160156 20.890625 -5.519531 21.921875 -7.28125 C 22.960938 -9.039062 23.484375 -11.097656 23.484375 -13.453125 C 23.484375 -15.554688 23.007812 -17.5 22.0625 -19.28125 C 21.113281 -21.070312 19.710938 -22.5 17.859375 -23.5625 C 16.015625 -24.625 13.796875 -25.15625 11.203125 -25.15625 L 6.15625 -25.15625 L 6.15625 -1.78125 Z M 11.734375 -1.78125 "/></g></g></g><g fill="#000000" fill-opacity="1"><g transform="translate(233.645214, 218.949991)"><g><path d="M 2.578125 -13.453125 C 2.578125 -15.929688 3.195312 -18.226562 4.4375 -20.34375 C 5.6875 -22.457031 7.359375 -24.140625 9.453125 -25.390625 C 11.554688 -26.648438 13.851562 -27.28125 16.34375 -27.28125 C 18.820312 -27.28125 21.125 -26.648438 23.25 -25.390625 C 25.382812 -24.140625 27.070312 -22.457031 28.3125 -20.34375 C 29.550781 -18.226562 30.171875 -15.929688 30.171875 -13.453125 C 30.171875 -10.972656 29.550781 -8.671875 28.3125 -6.546875 C 27.070312 -4.429688 25.382812 -2.757812 23.25 -1.53125 C 21.125 -0.3125 18.820312 0.296875 16.34375 0.296875 C 13.832031 0.296875 11.523438 -0.296875 9.421875 -1.484375 C 7.316406 -2.671875 5.648438 -4.316406 4.421875 -6.421875 C 3.191406 -8.523438 2.578125 -10.867188 2.578125 -13.453125 Z M 4.484375 -13.40625 C 4.484375 -11.257812 5.015625 -9.273438 6.078125 -7.453125 C 7.140625 -5.628906 8.570312 -4.175781 10.375 -3.09375 C 12.175781 -2.019531 14.148438 -1.484375 16.296875 -1.484375 C 18.472656 -1.484375 20.476562 -2.015625 22.3125 -3.078125 C 24.15625 -4.140625 25.609375 -5.585938 26.671875 -7.421875 C 27.734375 -9.265625 28.265625 -11.273438 28.265625 -13.453125 C 28.265625 -15.628906 27.726562 -17.632812 26.65625 -19.46875 C 25.582031 -21.3125 24.128906 -22.773438 22.296875 -23.859375 C 20.472656 -24.953125 18.488281 -25.5 16.34375 -25.5 C 14.164062 -25.5 12.160156 -24.945312 10.328125 -23.84375 C 8.503906 -22.738281 7.070312 -21.257812 6.03125 -19.40625 C 5 -17.5625 4.484375 -15.5625 4.484375 -13.40625 Z M 4.484375 -13.40625 "/></g></g></g><g fill="#000000" fill-opacity="1"><g transform="translate(274.792523, 218.949991)"><g><path d="M 26.9375 -26.984375 L 26.9375 0.640625 L 26.859375 0.640625 L 6.078125 -22.765625 L 6.125 0 L 4.296875 0 L 4.296875 -27.546875 L 4.40625 -27.546875 L 25.1875 -3.953125 L 25.15625 -26.984375 Z M 26.9375 -26.984375 "/></g></g></g><g fill="#000000" fill-opacity="1"><g transform="translate(314.42016, 218.949991)"><g><path d="M 19.265625 -8.9375 L 7.375 -8.9375 L 3.796875 0 L 1.9375 0 L 13.34375 -28.15625 L 13.484375 -28.15625 L 24.890625 0 L 22.796875 0 Z M 18.578125 -10.671875 L 13.375 -23.9375 L 8.0625 -10.671875 Z M 18.578125 -10.671875 "/></g></g></g></svg>